# Blender v2.79 (sub 0) OBJ File: 'collectable_pack.blend'
# www.blender.org
mtllib Gem.mtl
o Gem_2_B_Cylinder.044
v 0.016326 -0.891278 0.009279
v 0.005371 -0.896463 -0.000000
v 0.016326 -0.891278 -0.009279
v 0.005371 0.896463 -0.000000
v 0.016326 0.891278 0.009279
v 0.016326 0.891278 -0.009279
v 0.004151 -0.896463 0.001531
v 0.015526 -0.889884 0.007887
v 0.003151 -0.889271 0.014121
v 0.015526 0.889884 0.007887
v 0.004151 0.896463 0.001531
v 0.003151 0.889271 0.014121
v -0.004151 -0.896463 0.001531
v -0.003151 -0.889271 0.014121
v -0.015526 -0.889884 0.007887
v -0.003151 0.889271 0.014121
v -0.004151 0.896463 0.001531
v -0.015526 0.889884 0.007887
v -0.005371 -0.896463 -0.000000
v -0.016326 -0.891278 0.009279
v -0.016326 -0.891278 -0.009279
v -0.016326 0.891278 0.009279
v -0.005371 0.896463 -0.000000
v -0.016326 0.891278 -0.009279
v -0.004151 -0.896463 -0.001531
v -0.015526 -0.889884 -0.007887
v -0.003151 -0.889271 -0.014121
v -0.015526 0.889884 -0.007887
v -0.004151 0.896463 -0.001531
v -0.003151 0.889271 -0.014121
v 0.004151 -0.896463 -0.001531
v 0.003151 -0.889271 -0.014121
v 0.015526 -0.889884 -0.007887
v 0.003151 0.889271 -0.014121
v 0.004151 0.896463 -0.001531
v 0.015526 0.889884 -0.007887
v 0.535180 -0.550315 0.007205
v 0.535180 -0.550315 -0.007205
v 0.542068 -0.537565 -0.007250
v 0.542068 -0.537565 0.007250
v 0.535180 0.550315 0.007205
v 0.542068 0.537565 0.007250
v 0.542068 0.537565 -0.007250
v 0.535180 0.550315 -0.007205
v 0.241284 0.395014 0.301969
v 0.228115 0.392099 0.307320
v 0.231168 0.378111 0.311137
v 0.244561 0.380336 0.305579
v 0.241284 -0.395014 0.301969
v 0.244561 -0.380336 0.305579
v 0.231168 -0.378111 0.311137
v 0.228115 -0.392099 0.307320
v -0.228115 0.392099 0.307320
v -0.241284 0.395014 0.301969
v -0.244561 0.380336 0.305579
v -0.231169 0.378111 0.311137
v -0.228115 -0.392099 0.307320
v -0.231169 -0.378111 0.311137
v -0.244561 -0.380336 0.305579
v -0.241284 -0.395014 0.301969
v -0.535180 0.550315 0.007205
v -0.535180 0.550315 -0.007205
v -0.542068 0.537565 -0.007250
v -0.542068 0.537565 0.007250
v -0.535180 -0.550315 0.007205
v -0.542068 -0.537565 0.007250
v -0.542068 -0.537565 -0.007250
v -0.535180 -0.550315 -0.007205
v -0.241284 0.395014 -0.301969
v -0.228115 0.392099 -0.307320
v -0.231168 0.378111 -0.311137
v -0.244561 0.380336 -0.305579
v -0.241284 -0.395014 -0.301969
v -0.244561 -0.380336 -0.305579
v -0.231168 -0.378111 -0.311137
v -0.228115 -0.392099 -0.307320
v 0.228115 0.392099 -0.307320
v 0.241284 0.395014 -0.301969
v 0.244561 0.380336 -0.305579
v 0.231168 0.378111 -0.311137
v 0.228115 -0.392099 -0.307320
v 0.231168 -0.378111 -0.311137
v 0.244561 -0.380336 -0.305579
v 0.241284 -0.395014 -0.301969
vt 0.166340 0.819463
vt 0.129202 0.900870
vt 0.129334 0.901100
vt 0.214686 0.845011
vt 0.124094 0.896695
vt 0.086957 0.978102
vt 0.038610 0.952555
vt 0.123963 0.896466
vt 0.123963 0.896466
vt 0.038610 0.952555
vt 0.086957 0.978102
vt 0.124094 0.896695
vt 0.126130 0.896796
vt 0.089123 0.978581
vt 0.164174 0.978581
vt 0.127167 0.896796
vt 0.214686 0.845011
vt 0.129334 0.901100
vt 0.129202 0.900870
vt 0.166340 0.819463
vt 0.162473 0.666053
vt 0.162473 0.842913
vt 0.211549 0.817049
vt 0.211549 0.691917
vt 0.127167 0.896796
vt 0.164174 0.978581
vt 0.089123 0.978581
vt 0.126130 0.896796
vt 0.129202 0.896695
vt 0.166340 0.978102
vt 0.214686 0.952555
vt 0.129334 0.896466
vt 0.161532 0.674358
vt 0.161280 0.674559
vt 0.161029 0.674358
vt 0.161029 0.672992
vt 0.161280 0.672792
vt 0.161532 0.672992
vt 0.164676 0.692283
vt 0.164676 0.816683
vt 0.088621 0.816683
vt 0.088621 0.692283
vt 0.089123 0.818984
vt 0.126130 0.900769
vt 0.127167 0.900769
vt 0.164174 0.818984
vt 0.098360 0.813445
vt 0.183712 0.869534
vt 0.183844 0.869305
vt 0.146706 0.787898
vt 0.088621 0.692283
vt 0.088621 0.816683
vt 0.164676 0.816683
vt 0.164676 0.692283
vt 0.086957 0.819463
vt 0.124094 0.900870
vt 0.123963 0.901100
vt 0.038610 0.845011
vt 0.160088 0.666053
vt 0.160088 0.842913
vt 0.111012 0.817049
vt 0.111012 0.691917
vt 0.164174 0.818984
vt 0.127167 0.900769
vt 0.126130 0.900769
vt 0.089123 0.818984
vt 0.211549 0.691917
vt 0.211549 0.817049
vt 0.162473 0.842913
vt 0.162473 0.666053
vt 0.161280 0.674559
vt 0.161532 0.674358
vt 0.161532 0.672992
vt 0.161280 0.672792
vt 0.161029 0.672992
vt 0.161029 0.674358
vt 0.111012 0.691917
vt 0.111012 0.817049
vt 0.160088 0.842913
vt 0.160088 0.666053
vt 0.162807 0.676361
vt 0.159754 0.676361
vt 0.162807 0.676361
vt 0.159754 0.676361
vt 0.162578 0.676229
vt 0.163603 0.674193
vt 0.162578 0.676229
vt 0.163603 0.674193
vt 0.163603 0.673157
vt 0.162578 0.671121
vt 0.163603 0.673157
vt 0.162578 0.671121
vt 0.162807 0.670990
vt 0.159754 0.670990
vt 0.162807 0.670990
vt 0.159754 0.670990
vt 0.159983 0.671121
vt 0.158957 0.673157
vt 0.159983 0.671121
vt 0.158957 0.673157
vt 0.158957 0.674193
vt 0.159983 0.676229
vt 0.158957 0.674193
vt 0.159983 0.676229
vt 0.162466 0.663955
vt 0.160095 0.663955
vt 0.162466 0.845011
vt 0.160095 0.845011
vt 0.166879 0.817049
vt 0.166340 0.689503
vt 0.166879 0.691917
vt 0.164174 0.689982
vt 0.086418 0.817049
vt 0.089123 0.689982
vt 0.086418 0.691917
vt 0.086957 0.689503
vt 0.162466 0.845011
vt 0.160095 0.845011
vt 0.162466 0.663955
vt 0.160095 0.663955
vt 0.086957 0.819463
vt 0.086418 0.817049
vt 0.086957 0.689503
vt 0.086418 0.691917
vt 0.089123 0.689982
vt 0.166879 0.817049
vt 0.164174 0.689982
vt 0.166879 0.691917
vt 0.166340 0.689503
vt 0.129334 0.896466
vt 0.129202 0.896695
vt 0.127331 0.895613
vt 0.127532 0.895613
vt 0.129202 0.612271
vt 0.129334 0.612500
vt 0.127532 0.613353
vt 0.127331 0.613353
vt 0.160095 0.761713
vt 0.162466 0.761713
vt 0.127167 0.608196
vt 0.129202 0.608096
vt 0.124094 0.608096
vt 0.126130 0.608196
vt 0.125765 0.895613
vt 0.125966 0.895613
vt 0.123963 0.612500
vt 0.124094 0.612271
vt 0.125966 0.613353
vt 0.125765 0.613353
vt 0.160095 0.874236
vt 0.159754 0.959589
vt 0.162807 0.959589
vt 0.162466 0.874236
vt 0.125966 0.895613
vt 0.124094 0.612271
vt 0.123963 0.612500
vt 0.125966 0.613353
vt 0.126130 0.608196
vt 0.124094 0.608096
vt 0.129202 0.608096
vt 0.127167 0.608196
vt 0.127331 0.895613
vt 0.129334 0.612500
vt 0.129202 0.612271
vt 0.127331 0.613353
vt 0.160095 0.761713
vt 0.162466 0.761713
vt 0.127167 0.612170
vt 0.164174 0.530385
vt 0.166340 0.530864
vt 0.086957 0.530864
vt 0.089123 0.530385
vt 0.126130 0.612170
vt 0.160095 0.585637
vt 0.162466 0.585637
vt 0.126130 0.612170
vt 0.089123 0.530385
vt 0.086957 0.530864
vt 0.166340 0.530864
vt 0.164174 0.530385
vt 0.127167 0.612170
vt 0.215820 0.666053
vt 0.214686 0.663955
vt 0.215820 0.842913
vt 0.097227 0.634487
vt 0.146167 0.660352
vt 0.146706 0.657937
vt 0.098360 0.632390
vt 0.146167 0.785483
vt 0.097227 0.811348
vt 0.037477 0.666053
vt 0.038610 0.663955
vt 0.037477 0.842913
vt 0.215820 0.666053
vt 0.214686 0.663955
vt 0.215820 0.842913
vt 0.214686 0.952555
vt 0.166340 0.978102
vn 0.3880 0.5923 -0.7061
vn -0.3880 -0.5923 0.7061
vn -0.3880 -0.5923 -0.7061
vn -0.0000 -0.5080 -0.8614
vn 0.3880 0.5923 0.7061
vn 0.7081 0.0000 0.7061
vn 0.0000 -0.5080 0.8614
vn 0.3880 -0.5923 -0.7061
vn 0.0000 1.0000 -0.0000
vn -0.0000 0.0000 1.0000
vn 0.0000 0.5080 -0.8614
vn -0.3880 0.5923 -0.7061
vn 0.0000 0.0000 -1.0000
vn -0.3880 0.5923 0.7061
vn -0.7081 0.0000 -0.7061
vn -0.0000 0.5080 0.8614
vn -0.7081 0.0000 0.7061
vn 0.0000 -1.0000 0.0000
vn 0.7081 0.0000 -0.7061
vn 0.4278 -0.9039 0.0000
vn 0.4278 0.9039 0.0000
vn 0.2089 -0.8419 0.4975
vn 0.2089 0.8419 0.4975
vn -0.2089 -0.8419 0.4975
vn -0.2089 0.8419 0.4975
vn -0.4278 -0.9039 -0.0000
vn -0.4278 0.9039 0.0000
vn -0.2089 -0.8419 -0.4975
vn -0.2089 0.8419 -0.4975
vn 0.2089 -0.8419 -0.4975
vn 0.2089 0.8419 -0.4975
vn 0.8798 -0.4753 0.0000
vn 0.8798 0.4753 0.0000
vn 0.3115 0.3022 0.9009
vn 0.3115 -0.3022 0.9009
vn -0.3115 0.3022 0.9009
vn -0.3115 -0.3022 0.9009
vn -0.8798 0.4753 0.0000
vn -0.8798 -0.4753 0.0000
vn -0.3115 0.3022 -0.9009
vn -0.3115 -0.3022 -0.9009
vn 0.3115 0.3022 -0.9009
vn 0.3115 -0.3022 -0.9009
vn -0.2965 -0.5102 0.8073
vn -0.2965 0.5102 0.8073
vn 0.5492 0.8357 -0.0000
vn 0.2694 -0.5783 0.7701
vn 0.0000 -0.8683 0.4960
vn -0.0000 0.8683 0.4960
vn -0.2694 -0.5783 0.7701
vn 0.2965 -0.5102 0.8073
vn 0.2965 0.5102 0.8073
vn -0.5492 -0.8357 0.0000
vn 0.2965 -0.5102 -0.8073
vn 0.2965 0.5102 -0.8074
vn -0.2694 -0.5783 -0.7701
vn -0.0000 -0.8683 -0.4960
vn 0.0000 0.8683 -0.4960
vn 0.2694 -0.5783 -0.7701
vn -0.2965 -0.5102 -0.8073
vn -0.2965 0.5102 -0.8074
vn 0.5492 -0.8357 0.0000
vn 1.0000 0.0000 0.0000
vn 0.2694 0.5783 0.7701
vn 0.3833 0.0000 0.9236
vn -0.2694 0.5783 0.7701
vn -0.3833 0.0000 0.9236
vn -0.5492 0.8357 0.0000
vn -1.0000 -0.0000 0.0000
vn -0.2694 0.5783 -0.7701
vn -0.3833 0.0000 -0.9236
vn 0.2694 0.5783 -0.7701
vn 0.3833 0.0000 -0.9236
vn 0.5834 -0.3159 -0.7482
vn 0.5834 0.3159 -0.7482
vn -0.0000 -0.2633 -0.9647
vn 0.0000 0.2633 -0.9647
vn -0.5834 -0.3159 -0.7482
vn -0.5834 0.3159 -0.7482
vn -0.5834 -0.3159 0.7482
vn -0.5834 0.3159 0.7482
vn 0.0000 -0.2633 0.9647
vn 0.0000 0.2633 0.9647
vn 0.5834 -0.3159 0.7482
vn 0.5834 0.3159 0.7482
vn 0.3880 -0.5923 0.7061
usemtl Mat_Gems
s off
f 78/1/1 36/2/1 6/3/1 44/4/1
f 15/5/2 60/6/2 65/7/2 20/8/2
f 21/9/3 68/10/3 73/11/3 26/12/3
f 27/13/4 76/14/4 81/15/4 32/16/4
f 41/17/5 5/18/5 10/19/5 45/20/5
f 40/21/6 42/22/6 48/23/6 50/24/6
f 9/25/7 52/26/7 57/27/7 14/28/7
f 33/29/8 84/30/8 38/31/8 3/32/8
f 11/33/9 4/34/9 35/35/9 29/36/9 23/37/9 17/38/9
f 51/39/10 47/40/10 56/41/10 58/42/10
f 70/43/11 30/44/11 34/45/11 77/46/11
f 62/47/12 24/48/12 28/49/12 69/50/12
f 75/51/13 71/52/13 80/53/13 82/54/13
f 54/55/14 18/56/14 22/57/14 61/58/14
f 67/59/15 63/60/15 72/61/15 74/62/15
f 46/63/16 12/64/16 16/65/16 53/66/16
f 59/67/17 55/68/17 64/69/17 66/70/17
f 2/71/18 7/72/18 13/73/18 19/74/18 25/75/18 31/76/18
f 83/77/19 79/78/19 43/79/19 39/80/19
f 1/81/20 2/71/20 3/82/20
f 4/34/21 5/83/21 6/84/21
f 7/72/22 8/85/22 9/86/22
f 10/87/23 11/33/23 12/88/23
f 13/73/24 14/89/24 15/90/24
f 16/91/25 17/38/25 18/92/25
f 19/74/26 20/93/26 21/94/26
f 22/95/27 23/37/27 24/96/27
f 25/75/28 26/97/28 27/98/28
f 28/99/29 29/36/29 30/100/29
f 31/76/30 32/101/30 33/102/30
f 34/103/31 35/35/31 36/104/31
f 37/105/32 38/106/32 39/80/32 40/21/32
f 41/107/33 42/22/33 43/79/33 44/108/33
f 45/20/34 46/63/34 47/40/34 48/109/34
f 49/110/35 50/111/35 51/39/35 52/112/35
f 53/66/36 54/55/36 55/113/36 56/41/36
f 57/114/37 58/42/37 59/115/37 60/116/37
f 61/117/38 62/118/38 63/60/38 64/69/38
f 65/119/39 66/70/39 67/59/39 68/120/39
f 69/121/40 70/43/40 71/52/40 72/122/40
f 73/123/41 74/124/41 75/51/41 76/125/41
f 77/46/42 78/1/42 79/126/42 80/53/42
f 81/127/43 82/54/43 83/128/43 84/129/43
f 1/130/44 8/131/44 7/132/44 2/133/44
f 10/134/45 5/135/45 4/136/45 11/137/45
f 44/138/46 6/84/46 5/83/46 41/139/46
f 52/112/47 9/140/47 8/141/47 49/110/47
f 9/86/48 14/89/48 13/73/48 7/72/48
f 16/91/49 12/88/49 11/33/49 17/38/49
f 60/116/50 15/142/50 14/143/50 57/114/50
f 15/5/51 20/8/51 19/144/51 13/145/51
f 22/146/52 18/147/52 17/148/52 23/149/52
f 68/150/53 21/151/53 20/152/53 65/153/53
f 21/9/54 26/12/54 25/154/54 19/144/54
f 28/155/55 24/156/55 23/149/55 29/157/55
f 76/125/56 27/158/56 26/159/56 73/123/56
f 27/98/57 32/101/57 31/76/57 25/75/57
f 34/103/58 30/100/58 29/36/58 35/35/58
f 84/129/59 33/160/59 32/161/59 81/127/59
f 33/29/60 3/32/60 2/133/60 31/162/60
f 6/163/61 36/164/61 35/165/61 4/136/61
f 3/82/62 38/166/62 37/167/62 1/81/62
f 39/80/63 43/79/63 42/22/63 40/21/63
f 12/168/64 46/169/64 45/170/64 10/134/64
f 47/40/65 51/39/65 50/111/65 48/109/65
f 18/147/66 54/171/66 53/172/66 16/173/66
f 55/113/67 59/115/67 58/42/67 56/41/67
f 24/96/68 62/174/68 61/175/68 22/95/68
f 63/60/69 67/59/69 66/70/69 64/69/69
f 30/176/70 70/177/70 69/178/70 28/155/70
f 71/52/71 75/51/71 74/124/71 72/122/71
f 36/164/72 78/179/72 77/180/72 34/181/72
f 79/126/73 83/128/73 82/54/73 80/53/73
f 83/128/74 39/182/74 38/183/74 84/129/74
f 78/1/75 44/4/75 43/184/75 79/126/75
f 75/51/76 82/54/76 81/127/76 76/125/76
f 70/43/77 77/46/77 80/53/77 71/52/77
f 67/185/78 74/186/78 73/187/78 68/188/78
f 62/47/79 69/50/79 72/189/79 63/190/79
f 59/115/80 66/191/80 65/192/80 60/116/80
f 54/55/81 61/58/81 64/193/81 55/113/81
f 51/39/82 58/42/82 57/114/82 52/112/82
f 46/63/83 53/66/83 56/41/83 47/40/83
f 40/194/84 50/111/84 49/110/84 37/195/84
f 41/17/85 45/20/85 48/109/85 42/196/85
f 1/130/86 37/197/86 49/198/86 8/131/86
