# Blender v2.79 (sub 0) OBJ File: ''
# www.blender.org
mtllib log_2Mod.mtl
o Log_2_Cube.002
v 0.135720 0.032725 0.774823
v -0.031102 0.128155 1.066759
v 0.127741 0.072946 1.059328
v -0.556955 0.015088 -1.430511
v -0.445351 -0.039941 -1.470334
v -0.359245 0.049044 -1.517560
v -0.561751 0.084396 -1.445960
v 0.055520 0.212899 0.276424
v 0.064941 0.168787 1.083571
v -0.107275 0.213110 0.988280
v 0.242979 0.710185 1.744333
v 0.320389 0.681193 1.715424
v -0.151239 0.197808 0.625187
v -0.129161 0.026712 1.086334
v -0.123944 0.061442 1.172259
v -0.308447 0.054570 2.311721
v 0.230072 0.577460 1.609529
v 0.302791 0.491638 1.637829
v -0.492401 0.059638 -1.383645
v -0.438010 0.130234 -1.440893
v 0.226951 0.093134 -0.312487
v -0.347726 0.083761 -0.928338
v 0.201837 0.179820 -0.481595
v 0.122716 0.313799 1.404738
v -0.013942 -0.023488 0.331219
v -0.399337 0.105115 -1.545385
v 0.209629 0.102763 1.024666
v 0.092318 0.268004 0.989586
v 0.223107 0.250156 1.000760
v 0.260771 0.674156 1.769003
v -0.234593 0.067923 1.131752
v -0.149819 0.200323 1.144398
v -0.343557 0.068861 2.226353
v -0.209184 0.207186 1.957190
v -0.513570 0.138373 -1.482809
v -0.390424 0.024257 -1.410631
v 0.184275 0.026196 -0.008620
v -0.130167 0.097667 -0.295777
v -0.079255 0.100183 -1.012828
v -0.245852 0.145569 -1.018427
v -0.136474 0.244539 -0.828539
v 0.233252 0.338970 1.393164
v 0.112217 0.405968 1.349655
v 0.203109 0.438642 1.360181
v -0.079308 0.110750 0.265259
vt 0.952668 0.622560
vt 0.948168 0.608719
vt 0.980285 0.598177
vt 0.988162 0.617388
vt 0.954988 0.570101
vt 0.964415 0.563609
vt 0.977879 0.574726
vt 0.000019 0.672246
vt 0.029809 0.593465
vt 0.250004 0.987018
vt 0.140488 0.681151
vt 0.988080 0.346713
vt 0.996068 0.484268
vt 0.954865 0.399397
vt 0.869693 0.961850
vt 0.795253 0.552938
vt 0.855928 0.676589
vt 0.218302 0.999302
vt 0.445216 0.687022
vt 0.404153 0.693510
vt 0.384577 0.669865
vt 0.664299 0.730458
vt 0.773657 0.824643
vt 0.709106 0.797677
vt 1.000000 0.563029
vt 0.432164 0.196302
vt 0.308130 0.289197
vt 0.407544 0.144040
vt 0.038479 0.325190
vt 0.064601 0.390420
vt 0.340471 0.771478
vt 0.340359 0.670886
vt 0.963106 0.356940
vt 0.183757 0.291152
vt 0.285766 0.001300
vt 0.175404 0.306810
vt 0.896014 0.580939
vt 0.904013 0.530019
vt 0.940344 0.445391
vt 0.969354 0.189411
vt 0.978087 0.170008
vt 0.993989 0.178639
vt 0.707480 0.730451
vt 0.952133 0.579146
vt 0.824313 0.462777
vt 0.383120 0.483715
vt 0.459519 0.664742
vt 0.887075 0.591042
vt 0.918440 0.622643
vt 0.877580 0.617985
vt 0.924598 0.328687
vt 0.888095 0.303700
vt 0.946311 0.298625
vt 0.957595 0.332701
vt 0.521508 0.001747
vt 0.475585 0.139150
vt 0.651430 0.628391
vt 0.672137 0.290547
vt 0.718377 0.252480
vt 0.427889 0.468223
vt 0.475803 0.571518
vt 0.834237 0.005020
vt 0.827189 0.315817
vt 0.816385 0.142296
vt 0.598331 0.630682
vt 0.624085 0.387436
vt 0.897229 0.451205
vt 0.081083 0.316135
vt 0.379163 0.766819
vt 0.317006 0.837258
vt 0.922135 0.358858
vt 0.877580 0.349855
vt 0.596140 0.969268
vt 0.590441 0.985484
vt 0.548890 0.916768
vt 0.443549 0.349131
vt 0.989001 0.542480
vt 0.979415 0.578190
vt 0.031612 0.229132
vt 0.808497 0.002154
vt 0.491953 0.706305
vt 0.892182 0.126043
vt 0.958336 0.000440
vt 0.948168 0.340788
vt 0.572517 0.017682
vt 0.595197 0.029233
vt 0.978946 0.527564
vt 0.107940 0.503739
vt 0.918440 0.586324
vt 0.890797 0.340381
vt 0.520649 0.161480
vt 0.298141 0.870505
vt 0.313641 0.876529
vt 0.882087 0.582482
vt 0.291948 0.977147
vt 0.877580 0.495119
vt 0.297565 0.018048
vt 0.216622 0.305421
vt 0.760596 0.002899
vt 0.789826 0.000000
vt 0.740710 0.124346
vt 0.779945 0.840572
vt 0.789826 0.836967
vt 0.951677 0.542839
vt 0.973196 0.528289
vn -0.7852 0.0746 -0.6147
vn -0.2546 0.4284 -0.8670
vn 0.2914 -0.7167 -0.6335
vn 0.4425 -0.5478 -0.7100
vn -0.9352 -0.1003 -0.3396
vn 0.8952 -0.4272 -0.1270
vn 0.5432 -0.8390 -0.0321
vn -0.1669 -0.5739 -0.8017
vn -0.9361 -0.2613 0.2355
vn -0.1389 0.0128 0.9902
vn -0.0377 -0.8048 0.5924
vn -0.1968 -0.6311 0.7503
vn -0.9634 -0.0494 0.2634
vn -0.9776 0.0615 -0.2015
vn -0.8786 -0.4629 -0.1170
vn 0.2316 -0.4296 -0.8728
vn -0.2517 0.6284 0.7361
vn -0.3971 0.6865 0.6091
vn -0.2933 0.9021 0.3166
vn 0.9687 -0.2050 -0.1401
vn 0.9564 0.0302 -0.2907
vn 0.9574 0.0248 -0.2876
vn -0.5078 -0.5504 -0.6627
vn -0.1230 0.3227 -0.9385
vn -0.0853 0.9807 -0.1760
vn 0.2336 0.9701 -0.0660
vn 0.3753 0.7827 -0.4965
vn 0.4532 -0.8485 0.2734
vn 0.3335 -0.9396 0.0769
vn 0.5823 0.6419 -0.4989
vn 0.1584 0.8780 -0.4516
vn 0.1718 0.8743 -0.4539
vn 0.7696 0.6290 0.1100
vn 0.8660 -0.3838 0.3206
vn -0.0060 -0.1812 0.9834
vn -0.0245 -0.9905 -0.1350
vn -0.7142 0.6497 -0.2603
vn -0.9393 0.1387 0.3138
vn -0.6695 0.2572 -0.6968
vn 0.9067 0.1429 -0.3969
vn -0.5510 -0.7763 -0.3061
vn -0.3061 0.2597 -0.9159
vn -0.9716 0.2185 -0.0909
vn -0.1889 0.9810 -0.0435
vn -0.2234 0.9632 0.1495
vn 0.0480 0.0036 0.9988
vn -0.3121 -0.4314 0.8464
vn -0.4678 -0.4922 0.7341
vn 0.8037 0.3243 0.4989
vn 0.8979 -0.3387 0.2813
vn -0.0524 0.9986 0.0011
vn 0.2646 0.9526 -0.1502
vn 0.9976 -0.0683 -0.0151
vn 0.9612 0.2628 -0.0843
vn 0.9779 0.1969 -0.0698
vn 0.8796 -0.3574 -0.3139
vn -0.2795 0.9571 -0.0766
vn -0.7609 0.6192 0.1941
vn 0.9956 -0.0930 -0.0120
vn -0.8890 0.4578 0.0075
vn 0.3556 -0.9009 0.2490
vn -0.9470 0.3141 -0.0680
vn -0.9804 0.1969 -0.0013
vn 0.4390 0.8625 0.2519
vn 0.1189 0.9898 -0.0784
vn -0.1522 0.9880 -0.0275
vn 0.7178 0.6503 0.2489
vn 0.9860 0.1466 0.0798
vn 0.1417 0.9864 -0.0835
vn -0.3431 -0.9382 -0.0453
vn 0.0844 0.1095 0.9904
vn -0.2516 0.9101 -0.3294
vn -0.9838 -0.0050 0.1792
vn -0.5216 0.8219 0.2290
vn 0.6823 -0.6625 -0.3092
vn -0.3997 0.9014 0.1664
usemtl Brown.5
s 1
f 7/1/1 35/2/2 20/3/3
f 7/1/1 20/3/3 19/4/4
f 7/5/1 19/6/4 4/7/5
f 21/8/6 37/9/7 5/10/8
f 38/11/9 5/10/8 37/9/7
f 30/12/10 24/13/11 18/14/12
f 33/15/13 13/16/14 31/17/15
f 21/8/6 5/10/8 6/18/16
f 2/19/17 9/20/18 28/21/19
f 42/22/20 12/23/21 18/24/22
f 5/25/8 4/7/23 19/6/24
f 41/26/25 23/27/26 39/28/27
f 37/9/7 27/29/28 1/30/29
f 44/31/30 29/32/31 28/21/32
f 30/12/10 18/14/12 12/33/33
f 15/34/34 16/35/35 14/36/36
f 30/37/10 17/38/37 24/39/38
f 6/40/16 5/41/8 36/42/39
f 42/22/40 44/43/30 12/23/33
f 20/3/41 35/2/2 26/44/42
f 45/45/43 31/17/15 13/16/14
f 28/21/19 8/46/44 10/47/45
f 2/48/46 3/49/47 9/50/48
f 2/19/17 28/21/19 10/47/45
f 2/51/49 32/52/50 15/53/34
f 2/51/49 15/53/34 14/54/36
f 26/55/42 40/56/51 39/28/52
f 29/57/53 44/43/54 42/22/55
f 29/57/53 21/58/6 23/59/56
f 45/60/43 13/61/14 8/46/57
f 4/62/5 38/63/9 22/64/58
f 27/65/59 37/66/7 29/57/53
f 17/38/37 43/67/60 24/39/38
f 27/29/28 3/68/61 1/30/29
f 43/69/60 17/70/37 28/21/62
f 9/71/63 43/67/60 28/72/62
f 33/73/13 16/74/35 34/75/64
f 38/76/9 45/60/43 8/46/57
f 44/31/30 28/21/32 17/70/37
f 5/25/8 19/6/24 36/77/39
f 20/3/41 26/44/42 6/78/16
f 42/79/20 18/14/22 3/68/61
f 29/32/65 23/27/26 8/46/57
f 8/46/57 41/26/25 38/76/9
f 10/47/45 13/61/66 34/75/64
f 22/64/58 7/80/1 4/62/5
f 10/47/67 34/75/64 32/81/50
f 34/82/64 16/83/35 15/53/68
f 9/71/48 3/84/47 24/39/11
f 3/68/61 14/36/36 1/30/29
f 13/61/66 33/73/13 34/75/64
f 26/55/42 35/85/2 40/56/51
f 8/46/57 28/21/69 29/32/65
f 7/86/1 40/56/51 35/85/2
f 41/26/25 8/46/57 23/27/26
f 3/87/47 18/14/12 24/13/11
f 29/57/53 42/22/55 27/65/59
f 15/53/68 32/52/50 34/82/64
f 25/88/70 37/9/7 1/30/29
f 2/48/46 14/89/71 3/49/47
f 2/51/49 10/90/67 32/52/50
f 27/29/28 42/79/20 3/68/61
f 38/76/9 41/26/25 22/91/58
f 29/57/53 37/66/7 21/58/6
f 8/46/44 13/61/66 10/47/45
f 17/70/37 12/92/33 44/31/30
f 39/28/27 40/56/72 41/26/25
f 9/71/63 24/39/73 43/67/60
f 17/70/37 11/93/74 12/92/33
f 30/37/10 11/94/74 17/38/37
f 38/11/9 4/95/23 5/10/8
f 25/96/70 31/17/15 45/45/43
f 41/26/25 40/56/72 22/91/58
f 14/36/36 33/97/13 31/98/15
f 6/99/16 26/100/42 39/101/75
f 7/86/1 22/91/76 40/56/51
f 1/30/29 14/36/36 31/98/15
f 25/88/70 1/30/29 31/98/15
f 14/36/36 16/35/35 33/97/13
f 25/88/70 38/11/9 37/9/7
f 39/101/75 23/59/56 21/58/6
f 21/58/6 6/99/16 39/101/75
f 25/96/70 45/45/43 38/63/9
usemtl Brown.6
f 30/102/10 12/23/33 11/103/74
f 36/77/39 20/104/41 6/105/16
f 36/77/39 19/6/24 20/104/41
